<?xml version="1.0" encoding="UTF-8"?>
<svg xmlns="http://www.w3.org/2000/svg" xmlns:xlink="http://www.w3.org/1999/xlink" width="278pt" height="244pt" viewBox="0 0 278 244" version="1.1">
<g id="surface1">
<path style="fill:none;stroke-width:2;stroke-linecap:round;stroke-linejoin:round;stroke:rgb(11.372549%,68.627451%,90.588235%);stroke-opacity:1;stroke-miterlimit:4;" d="M 31.578125 95.525391 L 63.158203 95.525391 L 63.158203 113.947266 C 63.158203 116.853516 60.800781 119.210938 57.894531 119.210938 L 36.841797 119.210938 C 33.935547 119.210938 31.578125 116.853516 31.578125 113.947266 Z M 31.578125 95.525391 " transform="matrix(2,0,0,2,44,2)"/>
<path style="fill:none;stroke-width:2;stroke-linecap:round;stroke-linejoin:round;stroke:rgb(11.372549%,68.627451%,90.588235%);stroke-opacity:1;stroke-miterlimit:4;" d="M 28.683594 95.525391 L 66.052734 95.525391 " transform="matrix(2,0,0,2,44,2)"/>
<path style="fill:none;stroke-width:2;stroke-linecap:round;stroke-linejoin:round;stroke:rgb(11.372549%,68.627451%,90.588235%);stroke-opacity:1;stroke-miterlimit:4;" d="M 35.525391 95.525391 L 28.130859 76.347656 " transform="matrix(2,0,0,2,44,2)"/>
<path style="fill:none;stroke-width:2;stroke-linecap:round;stroke-linejoin:round;stroke:rgb(11.372549%,68.627451%,90.588235%);stroke-opacity:1;stroke-miterlimit:4;" d="M 59.210938 95.525391 L 66.605469 76.347656 " transform="matrix(2,0,0,2,44,2)"/>
<path style="fill-rule:evenodd;fill:rgb(100%,100%,100%);fill-opacity:1;stroke-width:2;stroke-linecap:round;stroke-linejoin:round;stroke:rgb(11.372549%,68.627451%,90.588235%);stroke-opacity:1;stroke-miterlimit:4;" d="M 94.736328 40.263672 C 94.736328 18.462891 73.529297 0.789062 47.369141 0.789062 C 21.207031 0.789062 0 18.462891 0 40.263672 C 0 62.064453 21.207031 79.736328 47.369141 79.736328 C 73.529297 79.736328 94.736328 62.064453 94.736328 40.263672 Z M 94.736328 40.263672 " transform="matrix(2,0,0,2,44,2)"/>
<path style="fill:none;stroke-width:2;stroke-linecap:round;stroke-linejoin:round;stroke:rgb(11.372549%,68.627451%,90.588235%);stroke-opacity:1;stroke-miterlimit:4;" d="M 71.052734 40.263672 C 71.052734 18.462891 60.449219 0.789062 47.369141 0.789062 C 34.287109 0.789062 23.683594 18.462891 23.683594 40.263672 C 23.683594 62.064453 34.287109 79.736328 47.369141 79.736328 C 60.449219 79.736328 71.052734 62.064453 71.052734 40.263672 Z M 71.052734 40.263672 " transform="matrix(2,0,0,2,44,2)"/>
<path style="fill:none;stroke-width:2;stroke-linecap:round;stroke-linejoin:round;stroke:rgb(11.372549%,68.627451%,90.588235%);stroke-opacity:1;stroke-miterlimit:4;" d="M 55 40.5 C 55 18.685547 51.642578 1 47.5 1 C 43.357422 1 40 18.685547 40 40.5 C 40 62.314453 43.357422 80 47.5 80 C 51.642578 80 55 62.314453 55 40.5 Z M 55 40.5 " transform="matrix(2,0,0,2,44,2)"/>
<path style="fill:none;stroke-width:2;stroke-linecap:round;stroke-linejoin:round;stroke:rgb(11.372549%,68.627451%,90.588235%);stroke-opacity:1;stroke-miterlimit:4;" d="M 83 40.5 C 83 18.685547 67.105469 1 47.5 1 C 27.894531 1 12 18.685547 12 40.5 C 12 62.314453 27.894531 80 47.5 80 C 67.105469 80 83 62.314453 83 40.5 Z M 83 40.5 " transform="matrix(2,0,0,2,44,2)"/>
<path style="fill:none;stroke-width:2;stroke-linecap:round;stroke-linejoin:round;stroke:rgb(11.372549%,68.627451%,90.588235%);stroke-opacity:1;stroke-miterlimit:4;" d="M 120 11 C 126.130859 11 127.783203 11.802734 129 16 C 130.759766 11.818359 132.853516 11 137 11 " transform="matrix(2,0,0,2,2,2)"/>
<path style="fill:none;stroke-width:2;stroke-linecap:round;stroke-linejoin:round;stroke:rgb(11.372549%,68.627451%,90.588235%);stroke-opacity:1;stroke-miterlimit:4;" d="M 0.9995 82.000099 C 7.12935 81.998902 8.782274 82.762638 10.000392 86.753949 C 11.761174 82.778535 13.854747 82.000385 17.999383 81.999938 " transform="matrix(1.879385,-0.68404,0.68404,1.879385,-54.57138,18.675486)"/>
</g>
</svg>
