<?xml version="1.0" encoding="UTF-8"?>
<svg xmlns="http://www.w3.org/2000/svg" xmlns:xlink="http://www.w3.org/1999/xlink" width="1200pt" height="276pt" viewBox="0 0 1200 276" version="1.1">
<defs>
<filter id="alpha" filterUnits="objectBoundingBox" x="0%" y="0%" width="100%" height="100%">
  <feColorMatrix type="matrix" in="SourceGraphic" values="0 0 0 0 1 0 0 0 0 1 0 0 0 0 1 0 0 0 1 0"/>
</filter>
<mask id="mask0">
  <g filter="url(#alpha)">
<rect x="0" y="0" width="1200" height="276" style="fill:rgb(0%,0%,0%);fill-opacity:0.054902;stroke:none;"/>
  </g>
</mask>
<clipPath id="clip1">
  <rect width="1200" height="276"/>
</clipPath>
<g id="surface6" clip-path="url(#clip1)">
<path style=" stroke:none;fill-rule:evenodd;fill:rgb(59.215686%,59.215686%,59.215686%);fill-opacity:1;" d="M 200 267.316406 C 200 257.449219 192.019531 249.445312 182.179688 249.445312 C 179.457031 249.445312 176.941406 250.164062 174.628906 251.265625 C 171.25 244.332031 164.824219 239.511719 157.101562 237.863281 C 157.433594 236.078125 158.167969 234.417969 158.167969 232.53125 C 158.167969 216.105469 144.894531 202.785156 128.5 202.785156 C 120.746094 202.785156 113.808594 205.945312 108.539062 210.820312 C 106.542969 182.460938 83.203125 160 54.394531 160 C 29.367188 160 8.507812 177.003906 2.113281 200.058594 C -0.300781 199.578125 -2.785156 199.308594 -5.324219 199.308594 C -22.703125 199.308594 -37.15625 211.21875 -41.386719 227.292969 C -45.296875 225.734375 -49.511719 224.746094 -53.96875 224.746094 C -72.773438 224.746094 -88 240.023438 -88 258.871094 C -88 265.246094 -85.777344 270.886719 -82.730469 276 L 197.4375 276 C 198.921875 273.386719 200 270.53125 200 267.316406 "/>
</g>
<mask id="mask1">
  <g filter="url(#alpha)">
<rect x="0" y="0" width="1200" height="276" style="fill:rgb(0%,0%,0%);fill-opacity:0.054902;stroke:none;"/>
  </g>
</mask>
<clipPath id="clip2">
  <rect width="1200" height="276"/>
</clipPath>
<g id="surface9" clip-path="url(#clip2)">
<path style=" stroke:none;fill-rule:evenodd;fill:rgb(59.215686%,59.215686%,59.215686%);fill-opacity:1;" d="M 734 101.304688 C 734 98.242188 731.5625 95.757812 728.554688 95.757812 C 727.722656 95.757812 726.953125 95.980469 726.246094 96.324219 C 725.214844 94.171875 723.25 92.675781 720.894531 92.164062 C 720.992188 91.609375 721.21875 91.097656 721.21875 90.511719 C 721.21875 85.414062 717.160156 81.277344 712.152344 81.277344 C 709.785156 81.277344 707.664062 82.257812 706.054688 83.773438 C 705.445312 74.96875 698.3125 68 689.511719 68 C 681.863281 68 675.488281 73.277344 673.535156 80.429688 C 672.796875 80.285156 672.039062 80.199219 671.261719 80.199219 C 665.953125 80.199219 661.535156 83.894531 660.242188 88.882812 C 659.046875 88.402344 657.761719 88.09375 656.398438 88.09375 C 650.652344 88.09375 646 92.835938 646 98.683594 C 646 100.664062 646.679688 102.414062 647.609375 104 L 733.21875 104 C 733.671875 103.1875 734 102.304688 734 101.304688 "/>
</g>
<mask id="mask2">
  <g filter="url(#alpha)">
<rect x="0" y="0" width="1200" height="276" style="fill:rgb(0%,0%,0%);fill-opacity:0.054902;stroke:none;"/>
  </g>
</mask>
<clipPath id="clip3">
  <rect width="1200" height="276"/>
</clipPath>
<g id="surface12" clip-path="url(#clip3)">
<path style=" stroke:none;fill-rule:evenodd;fill:rgb(59.215686%,59.215686%,59.215686%);fill-opacity:1;" d="M 1256 98.0625 C 1256 89.046875 1248.683594 81.734375 1239.664062 81.734375 C 1237.171875 81.734375 1234.863281 82.390625 1232.742188 83.398438 C 1229.648438 77.0625 1223.753906 72.65625 1216.679688 71.152344 C 1216.980469 69.519531 1217.65625 68.003906 1217.65625 66.28125 C 1217.65625 51.269531 1205.484375 39.097656 1190.460938 39.097656 C 1183.351562 39.097656 1176.992188 41.984375 1172.160156 46.441406 C 1170.332031 20.523438 1148.933594 0 1122.53125 0 C 1099.585938 0 1080.464844 15.539062 1074.601562 36.605469 C 1072.390625 36.167969 1070.113281 35.917969 1067.785156 35.917969 C 1051.855469 35.917969 1038.605469 46.804688 1034.730469 61.492188 C 1031.144531 60.070312 1027.28125 59.164062 1023.195312 59.164062 C 1005.957031 59.164062 992 73.125 992 90.347656 C 992 96.175781 994.035156 101.324219 996.832031 106 L 1253.652344 106 C 1255.011719 103.609375 1256 101.003906 1256 98.0625 "/>
</g>
</defs>
<g id="surface1">
<use xlink:href="#surface6" mask="url(#mask0)"/>
<use xlink:href="#surface9" mask="url(#mask1)"/>
<use xlink:href="#surface12" mask="url(#mask2)"/>
</g>
</svg>
