<?xml version="1.0" encoding="UTF-8"?>
<svg xmlns="http://www.w3.org/2000/svg" xmlns:xlink="http://www.w3.org/1999/xlink" width="374pt" height="232pt" viewBox="0 0 374 232" version="1.1">
<defs>
<filter id="alpha" filterUnits="objectBoundingBox" x="0%" y="0%" width="100%" height="100%">
  <feColorMatrix type="matrix" in="SourceGraphic" values="0 0 0 0 1 0 0 0 0 1 0 0 0 0 1 0 0 0 1 0"/>
</filter>
<mask id="mask0">
  <g filter="url(#alpha)">
<rect x="0" y="0" width="374" height="232" style="fill:rgb(0%,0%,0%);fill-opacity:0.054902;stroke:none;"/>
  </g>
</mask>
<clipPath id="clip1">
  <rect width="374" height="232"/>
</clipPath>
<g id="surface6" clip-path="url(#clip1)">
<path style=" stroke:none;fill-rule:evenodd;fill:rgb(59.215686%,59.215686%,59.215686%);fill-opacity:1;" d="M 577.542969 214.644531 C 577.542969 194.957031 561.546875 178.992188 541.8125 178.992188 C 536.339844 178.992188 531.316406 180.429688 526.683594 182.621094 C 519.910156 168.773438 507.046875 159.175781 491.539062 155.902344 C 492.222656 152.332031 493.691406 149.035156 493.691406 145.269531 C 493.691406 112.5 467.074219 85.945312 434.230469 85.945312 C 418.695312 85.945312 404.796875 92.230469 394.203125 101.976562 C 390.210938 45.394531 343.4375 0.578125 285.714844 0.578125 C 235.539062 0.578125 193.71875 34.519531 180.894531 80.488281 C 176.074219 79.53125 171.09375 78.992188 165.988281 78.992188 C 131.183594 78.992188 102.195312 102.753906 93.714844 134.816406 C 85.890625 131.6875 77.433594 129.730469 68.480469 129.730469 C 30.816406 129.730469 0.28125 160.199219 0.28125 197.777344 C 0.28125 210.515625 4.746094 221.753906 10.847656 231.953125 L 572.417969 231.953125 C 575.386719 226.742188 577.542969 221.046875 577.542969 214.644531 "/>
<path style=" stroke:none;fill-rule:evenodd;fill:rgb(59.215686%,59.215686%,59.215686%);fill-opacity:1;" d="M 152.039062 94.710938 C 187.730469 94.710938 216.9375 123.734375 216.9375 159.199219 C 216.9375 166.511719 215.429688 173.433594 213.144531 180 C 219.972656 169.789062 224 157.59375 224 144.496094 C 224 109.023438 194.800781 80 159.113281 80 L 159.105469 80 C 130.773438 80 106.785156 98.414062 98 123.695312 C 109.644531 106.28125 129.53125 94.710938 152.039062 94.710938 "/>
</g>
</defs>
<g id="surface1">
<use xlink:href="#surface6" mask="url(#mask0)"/>
</g>
</svg>
