<?xml version="1.0" encoding="UTF-8"?>
<svg xmlns="http://www.w3.org/2000/svg" xmlns:xlink="http://www.w3.org/1999/xlink" width="372pt" height="232pt" viewBox="0 0 372 232" version="1.1">
<defs>
<filter id="alpha" filterUnits="objectBoundingBox" x="0%" y="0%" width="100%" height="100%">
  <feColorMatrix type="matrix" in="SourceGraphic" values="0 0 0 0 1 0 0 0 0 1 0 0 0 0 1 0 0 0 1 0"/>
</filter>
<mask id="mask0">
  <g filter="url(#alpha)">
<rect x="0" y="0" width="372" height="232" style="fill:rgb(0%,0%,0%);fill-opacity:0.054902;stroke:none;"/>
  </g>
</mask>
<clipPath id="clip1">
  <rect width="372" height="232"/>
</clipPath>
<g id="surface6" clip-path="url(#clip1)">
<path style=" stroke:none;fill-rule:evenodd;fill:rgb(59.215686%,59.215686%,59.215686%);fill-opacity:1;" d="M 371.542969 214.644531 C 371.542969 194.957031 355.546875 178.992188 335.8125 178.992188 C 330.339844 178.992188 325.316406 180.429688 320.683594 182.621094 C 313.910156 168.773438 301.046875 159.175781 285.539062 155.902344 C 286.222656 152.332031 287.691406 149.035156 287.691406 145.269531 C 287.691406 112.5 261.074219 85.945312 228.230469 85.945312 C 212.695312 85.945312 198.796875 92.230469 188.203125 101.976562 C 184.210938 45.394531 137.4375 0.578125 79.714844 0.578125 C 29.539062 0.578125 -12.28125 34.519531 -25.105469 80.488281 C -29.925781 79.53125 -34.90625 78.992188 -40.011719 78.992188 C -74.816406 78.992188 -103.804688 102.753906 -112.285156 134.816406 C -120.109375 131.6875 -128.566406 129.730469 -137.519531 129.730469 C -175.183594 129.730469 -205.71875 160.199219 -205.71875 197.777344 C -205.71875 210.515625 -201.253906 221.753906 -195.152344 231.953125 L 366.417969 231.953125 C 369.386719 226.742188 371.542969 221.046875 371.542969 214.644531 "/>
<path style=" stroke:none;fill-rule:evenodd;fill:rgb(59.215686%,59.215686%,59.215686%);fill-opacity:1;" d="M -53.960938 94.710938 C -18.269531 94.710938 10.9375 123.734375 10.9375 159.199219 C 10.9375 166.511719 9.429688 173.433594 7.144531 180 C 13.972656 169.789062 18 157.59375 18 144.496094 C 18 109.023438 -11.199219 80 -46.886719 80 L -46.894531 80 C -75.226562 80 -99.214844 98.414062 -108 123.695312 C -96.355469 106.28125 -76.46875 94.710938 -53.960938 94.710938 "/>
<path style=" stroke:none;fill-rule:evenodd;fill:rgb(59.215686%,59.215686%,59.215686%);fill-opacity:1;" d="M 271.8125 164.480469 C 256.042969 175.894531 234.011719 172.019531 222.863281 155.875 C 220.558594 152.539062 219.050781 148.910156 218 145.1875 C 218.183594 152.019531 220.238281 158.863281 224.363281 164.828125 C 235.507812 180.976562 257.53125 184.859375 273.308594 173.445312 C 285.828125 164.378906 290.652344 148.324219 286.597656 134 C 286.917969 145.652344 281.75 157.277344 271.8125 164.480469 "/>
</g>
</defs>
<g id="surface1">
<use xlink:href="#surface6" mask="url(#mask0)"/>
</g>
</svg>
